<svg width="60" height="55" viewBox="0 0 60 55" fill="none" xmlns="http://www.w3.org/2000/svg">
<mask id="mask0_4518_8766" style="mask-type:luminance" maskUnits="userSpaceOnUse" x="0" y="0" width="60" height="55">
<path d="M59.5 0H0.5V55H59.5V0Z" fill="white"/>
</mask>
<g mask="url(#mask0_4518_8766)">
<path d="M42.6871 47.8322L40.4094 39.3882L38.6997 33.0904L34.5005 17.5207L17.5093 16.8707L14.0397 16.748C13.1542 16.748 12.3244 16.8523 11.5448 17.0362C8.47062 17.7536 6.17617 19.6854 4.65024 21.6048C3.90398 22.5492 3.35263 23.4873 2.97394 24.2784C2.5674 25.1307 2.22768 26.0076 1.93809 26.903L1.73204 27.5775C0.111434 33.2866 0.802001 39.7991 4.11003 45.2384C5.98125 48.329 8.61543 50.788 11.5726 52.4621C14.8918 54.357 18.6286 55.2523 22.1428 54.9212C22.1706 54.9212 22.1928 54.9212 22.2096 54.9212L23.7912 54.682L43.7286 51.7079L42.6759 47.8201L42.6871 47.8322ZM16.8521 23.702C20.7616 21.758 25.7682 23.5731 28.5751 28.1907C30.3683 31.1526 30.8584 34.5989 30.1455 37.5486C29.7 39.4189 28.7644 41.093 27.3777 42.3071C27.2162 42.4482 27.0491 42.5892 26.8653 42.7241C22.85 45.6799 17.1084 43.9752 14.0286 38.916C12.0126 35.5924 11.645 31.6432 12.77 28.4913C13.3659 26.8355 14.3571 25.4006 15.7383 24.3888C16.1003 24.1189 16.4622 23.8982 16.8466 23.7081H16.8521V23.702Z" fill="#C12D9C"/>
<path d="M39.7694 31.2254C39.4687 31.8815 39.1122 32.507 38.7056 33.0895L34.501 17.5197L17.5153 16.876C18.2894 14.6254 19.6316 12.6692 21.4971 11.2956C26.8212 7.37095 34.4453 9.63374 38.5274 16.3485C39.307 17.6302 39.903 18.9916 40.3151 20.3714C41.4456 24.1304 41.2229 28.0672 39.7694 31.2315V31.2254Z" fill="#C12D9C"/>
<path d="M60.0798 45.2441L43.7401 51.7199L42.6874 47.8321L60.0798 45.2441Z" fill="#C12D9C"/>
<path d="M4.6501 21.6169C3.90384 22.5612 3.34693 23.4995 2.97381 24.2845C2.57283 25.1369 2.22754 26.0138 1.93796 26.9151L5.70266 14.1172C5.02323 16.5395 4.67237 19.0659 4.6501 21.6169Z" fill="#C12D9C"/>
<path d="M48.1177 0.999554L44.9489 6.75773L30.4525 3.45858C26.1811 2.2628 21.7091 2.88215 18.0278 5.59872C16.5242 6.69639 15.2712 8.06389 14.2687 9.62761C13.9792 10.0753 13.7118 10.529 13.4668 11.0012C12.5145 12.8409 11.874 14.8891 11.551 17.0477L11.5399 17.0966C11.5065 17.3297 11.4731 17.575 11.4508 17.8141C11.4229 18.0226 11.4007 18.2311 11.384 18.4335C11.3673 18.6113 11.3505 18.7954 11.345 18.9793C11.3227 19.2429 11.3171 19.5005 11.3116 19.7642C11.3116 19.9666 11.306 20.175 11.3116 20.3835C11.3116 20.5736 11.3116 20.7637 11.3227 20.9538C11.3227 21.1684 11.3338 21.3832 11.345 21.5977C11.3561 21.8 11.3673 22.0024 11.3895 22.2049C11.3895 22.3213 11.4062 22.4439 11.4174 22.5666C11.4452 22.8302 11.4731 23.1001 11.5065 23.3638L4.6955 23.4741C4.66208 22.8549 4.64538 22.2354 4.65651 21.6161C4.67322 19.0651 5.02964 16.5386 5.70907 14.1164L5.89842 13.4603C6.28825 12.1848 6.76719 10.9399 7.33524 9.74411C9.06166 6.10157 13.8121 0.0429257 21.6479 0L48.1177 0.999554Z" fill="#FC7AB1"/>
<path d="M51.6482 33.721L40.4099 39.3872L37.0405 41.0797C34.0443 42.6496 30.675 43.0113 27.3726 42.2938C22.5999 41.2575 17.9775 37.9583 14.8366 32.7888C13.9957 31.403 13.2995 29.9497 12.7649 28.4717C12.1467 26.7915 11.729 25.0622 11.5007 23.3513L16.7969 23.2656C16.8137 23.4067 16.8247 23.5538 16.8415 23.6948C17.1311 26.0312 17.9218 28.3982 19.2306 30.5568C21.8983 34.9475 26.0806 37.4371 30.1404 37.5353C32.2902 37.5843 34.4175 36.9649 36.2553 35.6098C37.202 34.9107 38.0208 34.0522 38.6946 33.0894C39.1011 32.5068 39.463 31.8814 39.7582 31.2252L51.6371 33.721H51.6482Z" fill="#FC7AB1"/>
<path d="M51.648 33.7229L48.3121 20.2871L40.315 20.3669C41.4455 24.1259 41.2228 28.0628 39.7691 31.227L51.648 33.7229Z" fill="#FC7AB1"/>
<path d="M44.9491 6.75916L30.4528 3.46002C26.1812 2.26423 21.7092 2.88358 18.0281 5.60017C14.436 8.23702 12.2362 12.3885 11.5457 17.049C11.2394 19.085 11.2227 21.219 11.5067 23.3653L16.8029 23.2794C16.5913 21.0472 16.8363 18.852 17.5156 16.8835C18.2898 14.6329 19.6319 12.6768 21.4976 11.3031C26.8217 7.37851 34.4458 9.64131 38.5279 16.3561C38.8175 16.8344 39.0848 17.325 39.3188 17.8155C39.7253 18.6556 40.0593 19.5081 40.3156 20.3728L48.3127 20.293L44.9546 6.76529L44.9491 6.75916Z" fill="#FF2D92"/>
<path d="M60.0805 45.244L51.6489 33.7216L48.3131 20.2859L44.9493 6.75816L48.1183 1L60.0805 45.244Z" fill="#FC7AB1"/>
<path d="M60.0807 45.2439L42.694 47.8317L34.2847 49.0888C34.2847 49.0888 34.2624 49.0888 34.2569 49.0951L32.1517 49.4078C32.1517 49.4078 32.1183 49.4078 32.1015 49.4078C32.096 49.4078 32.0849 49.4078 32.0792 49.4078C32.0737 49.4078 32.0737 49.4078 32.0626 49.4078C32.0459 49.4078 32.0348 49.4078 32.0236 49.4078C23.4695 50.1374 13.9352 45.2991 8.8061 36.8613C6.27773 32.7036 4.93557 28.0737 4.69054 23.4562L11.5015 23.3457C11.5795 23.9528 11.6853 24.5477 11.819 25.1609C11.8635 25.3633 11.9081 25.5656 11.9526 25.7557C12.1698 26.6695 12.4427 27.5769 12.7657 28.4661C12.9105 28.8708 13.0664 29.2757 13.2447 29.6742C13.3059 29.8214 13.3672 29.9685 13.4396 30.1158C13.6066 30.4959 13.7904 30.8823 13.9853 31.2687C14.0633 31.4281 14.1468 31.5814 14.2359 31.7346C14.4197 32.0841 14.6258 32.4399 14.8374 32.7832C17.9784 37.9527 22.6006 41.2519 27.3735 42.2882C28.4761 42.5274 29.5843 42.644 30.6814 42.6377C31.0212 42.6377 31.3553 42.6317 31.695 42.601C33.5384 42.4599 35.3483 41.9633 37.0357 41.0741L40.405 39.3816L51.6435 33.7154L60.0751 45.2378L60.0807 45.2439Z" fill="#FF2D92"/>
</g>
</svg>
