<svg width="161" height="161" viewBox="396.4 51 161 161" fill="none" xmlns="http://www.w3.org/2000/svg">
<g clip-path="url(#clip0_553_62)">
<path d="M507.543 178.503L502.107 159.48L498.027 145.293L488.006 110.217L447.458 108.753L439.178 108.477C437.065 108.477 435.084 108.711 433.224 109.126C425.887 110.742 420.412 115.094 416.77 119.418C414.989 121.545 413.674 123.659 412.77 125.441C411.8 127.361 410.989 129.337 410.298 131.354L409.806 132.873C405.939 145.735 407.587 160.406 415.481 172.66C419.947 179.622 426.233 185.162 433.29 188.933C441.211 193.202 450.129 195.219 458.515 194.473C458.582 194.473 458.635 194.473 458.675 194.473L462.449 193.934L510.028 187.234L507.516 178.476L507.543 178.503ZM445.889 124.142C455.219 119.763 467.167 123.852 473.865 134.255C478.145 140.927 479.314 148.691 477.613 155.336C476.55 159.549 474.317 163.321 471.008 166.056C470.623 166.374 470.224 166.692 469.785 166.996C460.203 173.654 446.501 169.814 439.151 158.417C434.34 150.929 433.463 142.032 436.148 134.932C437.57 131.202 439.935 127.969 443.231 125.69C444.095 125.082 444.959 124.584 445.876 124.156H445.889V124.142Z" fill="#1D4A76" style="fill:#1D4A76;fill:color(display-p3 0.1137 0.2902 0.4627);fill-opacity:1;"/>
<path d="M500.579 141.09C499.861 142.568 499.01 143.977 498.04 145.29L488.006 110.214L447.471 108.764C449.318 103.694 452.521 99.2869 456.973 96.1924C469.679 87.351 487.873 92.4486 497.615 107.576C499.476 110.463 500.898 113.53 501.881 116.638C504.579 125.107 504.047 133.976 500.579 141.104V141.09Z" fill="#1D4A76" style="fill:#1D4A76;fill:color(display-p3 0.1137 0.2902 0.4627);fill-opacity:1;"/>
<path d="M549.049 172.675L510.055 187.263L507.543 178.504L549.049 172.675Z" fill="#1D4A76" style="fill:#1D4A76;fill:color(display-p3 0.1137 0.2902 0.4627);fill-opacity:1;"/>
<path d="M416.769 119.444C414.988 121.572 413.659 123.686 412.769 125.454C411.812 127.374 410.988 129.35 410.297 131.38L419.281 102.549C417.66 108.006 416.822 113.698 416.769 119.444Z" fill="#1D4A76" style="fill:#1D4A76;fill:color(display-p3 0.1137 0.2902 0.4627);fill-opacity:1;"/>
<path d="M520.499 72.9962L512.937 85.9682L478.342 78.5359C468.149 75.842 457.477 77.2373 448.692 83.3572C445.103 85.83 442.113 88.9107 439.721 92.4335C439.03 93.4419 438.392 94.4642 437.807 95.528C435.534 99.6724 434.006 104.286 433.235 109.149L433.208 109.26C433.129 109.785 433.049 110.337 432.996 110.876C432.929 111.346 432.876 111.815 432.836 112.271C432.796 112.672 432.757 113.086 432.743 113.501C432.69 114.095 432.677 114.675 432.664 115.269C432.664 115.725 432.65 116.195 432.664 116.664C432.664 117.093 432.664 117.521 432.69 117.949C432.69 118.433 432.717 118.916 432.743 119.4C432.77 119.856 432.796 120.312 432.85 120.767C432.85 121.03 432.889 121.306 432.916 121.582C432.983 122.177 433.049 122.784 433.129 123.378L416.875 123.627C416.795 122.232 416.755 120.836 416.782 119.441C416.822 113.694 417.672 108.003 419.294 102.546L419.745 101.068C420.676 98.1942 421.819 95.3898 423.174 92.6959C427.294 84.49 438.631 70.8411 457.33 70.7444L520.499 72.9962Z" fill="#80C0E3" style="fill:#80C0E3;fill:color(display-p3 0.5020 0.7529 0.8902);fill-opacity:1;"/>
<path d="M528.927 146.709L502.107 159.474L494.066 163.287C486.916 166.823 478.876 167.638 470.995 166.022C459.605 163.687 448.574 156.255 441.078 144.609C439.071 141.487 437.41 138.213 436.134 134.884C434.659 131.098 433.662 127.203 433.117 123.348L445.756 123.155C445.796 123.473 445.823 123.804 445.863 124.122C446.554 129.385 448.441 134.718 451.564 139.581C457.93 149.472 467.911 155.081 477.6 155.302C482.73 155.412 487.807 154.017 492.193 150.964C494.452 149.389 496.406 147.455 498.014 145.286C498.984 143.974 499.848 142.565 500.552 141.087L528.9 146.709H528.927Z" fill="#80C0E3" style="fill:#80C0E3;fill:color(display-p3 0.5020 0.7529 0.8902);fill-opacity:1;"/>
<path d="M528.928 146.714L520.967 116.446L501.883 116.625C504.58 125.094 504.049 133.963 500.58 141.091L528.928 146.714Z" fill="#80C0E3" style="fill:#80C0E3;fill:color(display-p3 0.5020 0.7529 0.8902);fill-opacity:1;"/>
<path d="M512.942 85.9682L478.347 78.5359C468.153 75.8421 457.481 77.2374 448.696 83.3573C440.124 89.2976 434.874 98.6501 433.226 109.149C432.495 113.736 432.456 118.543 433.133 123.378L445.772 123.185C445.267 118.156 445.852 113.211 447.474 108.776C449.321 103.706 452.524 99.2994 456.976 96.2049C469.682 87.3635 487.876 92.4611 497.618 107.588C498.309 108.666 498.947 109.771 499.505 110.876C500.475 112.769 501.273 114.689 501.884 116.637L520.969 116.457L512.955 85.9821L512.942 85.9682Z" fill="#3A85D5" style="fill:#3A85D5;fill:color(display-p3 0.2275 0.5216 0.8353);fill-opacity:1;"/>
<path d="M549.053 172.672L528.932 146.714L520.971 116.446L512.943 85.9708L520.506 72.9988L549.053 172.672Z" fill="#80C0E3" style="fill:#80C0E3;fill:color(display-p3 0.5020 0.7529 0.8902);fill-opacity:1;"/>
<path d="M549.048 172.671L507.556 178.501L487.488 181.333C487.488 181.333 487.435 181.333 487.421 181.347L482.398 182.051C482.398 182.051 482.318 182.051 482.278 182.051C482.265 182.051 482.238 182.051 482.225 182.051C482.212 182.051 482.212 182.051 482.185 182.051C482.145 182.051 482.119 182.051 482.092 182.051C461.678 183.695 438.925 172.795 426.685 153.786C420.651 144.42 417.448 133.99 416.863 123.587L433.117 123.339C433.303 124.706 433.556 126.046 433.875 127.428C433.981 127.884 434.087 128.34 434.194 128.768C434.712 130.826 435.363 132.871 436.134 134.874C436.48 135.786 436.852 136.697 437.277 137.595C437.423 137.927 437.57 138.258 437.742 138.59C438.141 139.447 438.58 140.317 439.045 141.187C439.231 141.546 439.43 141.892 439.643 142.237C440.081 143.025 440.573 143.826 441.078 144.599C448.574 156.245 459.605 163.678 470.995 166.012C473.626 166.551 476.271 166.813 478.889 166.8C479.7 166.8 480.497 166.786 481.308 166.717C485.707 166.399 490.026 165.28 494.053 163.277L502.094 159.464L528.914 146.699L549.035 172.657L549.048 172.671Z" fill="#3A85D5" style="fill:#3A85D5;fill:color(display-p3 0.2275 0.5216 0.8353);fill-opacity:1;"/>
</g>
<defs>
<clipPath id="clip0_553_62">
<rect width="141" height="131" fill="white" style="fill:white;fill-opacity:1;" transform="translate(406.4 66)"/>
</clipPath>
</defs>
</svg>
