<svg xmlns="http://www.w3.org/2000/svg" viewBox="0 0 256 256" role="img" aria-label="Autodesk Fusion 360">
  <path fill="#ff9548" d="M46.79097-.00247339 7.8151404 23.849982l.2080078.140625 7.6506218-.679759L45.733663 5.9498164Z"/>
  <path fill="#ff9548" d="m46.398594.36621094.381406-.36621094c-.09 59.94-.13 119.88.02 179.82-6.626401 3.99384-34.558467 20.8215-38.97 23.43-.01-59.8.01-119.6-.01-179.4C16.708712 15.663236 38.795821 8.8363876 46.398594.36621094Z"/>
  <path fill="#ff6b00" d="M46.78 0h171.61c6.13 1.02 11.96 5.71 12.23 12.27.19 9.33.01 18.66.07 28 .01 46.5-.01 93.01.01 139.51-61.3.1-122.6.02-183.9.04C46.65 119.88 46.69 59.94 46.78 0m64.99 40.53c.03 33.12 0 66.25.02 99.37 8.3-.02 16.6.05 24.9-.04-.06-13.36-.02-26.73-.03-40.1 10.87.02 21.74-.07 32.62.04.1-5.89.16-11.8-.04-17.69-10.86.12-21.71.03-32.57.05-.06-7.88.07-15.76-.08-23.65 12.91-.24 25.83-.03 38.74-.1-.01-5.96-.01-11.93 0-17.89-21.18-.01-42.37-.02-63.56.01Z"/>
  <path fill="#933c00" d="M230.69 40.27c5.94.06 11.87-.15 17.81.13-.24 71.86-.04 143.73-.1 215.6H40.9c-5.81-1.25-11.45-5.68-11.72-12.02-.18-17.83-.03-35.67-.07-53.51 5.9-3.54 11.8-7.1 17.69-10.65 61.3-.02 122.6.06 183.9-.04-.02-46.5 0-93.01-.01-139.51m-67.65 158.79c-5.98 3.18-6.67 13.1-.89 16.77 4.26 2.55 9.33 3.16 13.81 5.21 2.8 1.01 3.04 5.21.95 7.02-4.15 2.47-11.05.88-11.18-4.73-2.9 0-5.79.01-8.69 0 .21 3.27 1.31 6.63 3.86 8.84 4.07 3.74 10.03 4.07 15.26 3.52 4.91-.51 10.17-3.53 11.22-8.7.56-3.71.37-8.19-2.82-10.71-4.38-3.61-10.41-3.8-15.3-6.43-2.19-1.02-2.31-4.58-.27-5.79 3.7-2.14 9.43-.51 9.84 4.26 2.86.02 5.73.02 8.59 0-.24-4.26-2.65-8.43-6.73-10.04-5.58-2.23-12.33-2.14-17.65.78m-70.92-1.44c.17 12.52.04 25.05.07 37.57 3.08 0 6.16 0 9.24.09.34-5.14.03-10.28.17-15.42 4.1.01 8.2.01 12.3 0 0-2.21 0-4.41-.01-6.61-4.11.01-8.21.01-12.32.01.03-2.93.02-5.87-.08-8.79 4.91-.27 9.83-.06 14.75-.13 0-2.27 0-4.54.01-6.8-8.05.04-16.09-.12-24.13.08m28.92-.04c.34 9.78-.47 19.63.45 29.38 1.76 9.44 14.87 11.74 21.22 5.52.26.9.53 1.8.82 2.7 2.63.01 5.26.01 7.89.12.42-12.58.14-25.2.13-37.79-3.13.03-6.26.02-9.39.11.16 8.8 0 17.6.09 26.41.83 6.26-11.34 7.35-11.7.85-.28-9.1-.05-18.22-.11-27.32-3.13-.03-6.26-.03-9.4.02Z"/>
  <path fill="#fff" d="M111.77 40.53c21.19-.03 42.38-.02 63.56-.01-.01 5.96-.01 11.93 0 17.89-12.91.07-25.83-.14-38.74.1.15 7.89.02 15.77.08 23.65 10.86-.02 21.71.07 32.57-.05.2 5.89.14 11.8.04 17.69-10.88-.11-21.75-.02-32.62-.04.01 13.37-.03 26.74.03 40.1-8.3.09-16.6.02-24.9.04-.02-33.12.01-66.25-.02-99.37ZM163.04 199.06c5.32-2.92 12.07-3.01 17.65-.78 4.08 1.61 6.49 5.78 6.73 10.04-2.86.02-5.73.02-8.59 0-.41-4.77-6.14-6.4-9.84-4.26-2.04 1.21-1.92 4.77.27 5.79 4.89 2.63 10.92 2.82 15.3 6.43 3.19 2.52 3.38 7 2.82 10.71-1.05 5.17-6.31 8.19-11.22 8.7-5.23.55-11.19.22-15.26-3.52-2.55-2.21-3.65-5.57-3.86-8.84 2.9.01 5.79 0 8.69 0 .13 5.61 7.03 7.2 11.18 4.73 2.09-1.81 1.85-6.01-.95-7.02-4.48-2.05-9.55-2.66-13.81-5.21-5.78-3.67-5.09-13.59.89-16.77ZM92.12 197.62c8.04-.2 16.08-.04 24.13-.08-.01 2.26-.01 4.53-.01 6.8-4.92.07-9.84-.14-14.75.13.1 2.92.11 5.86.08 8.79 4.11 0 8.21 0 12.32-.01.01 2.2.01 4.4.01 6.61-4.1.01-8.2.01-12.3 0-.14 5.14.17 10.28-.17 15.42-3.08-.09-6.16-.09-9.24-.09-.03-12.52.1-25.05-.07-37.57ZM121.04 197.58c3.14-.05 6.27-.05 9.4-.02.06 9.1-.17 18.22.11 27.32.36 6.5 12.53 5.41 11.7-.85-.09-8.81.07-17.61-.09-26.41 3.13-.09 6.26-.08 9.39-.11.01 12.59.29 25.21-.13 37.79-2.63-.11-5.26-.11-7.89-.12-.29-.9-.56-1.8-.82-2.7-6.35 6.22-19.46 3.92-21.22-5.52-.92-9.75-.11-19.6-.45-29.38Z"/>
</svg>
